<?xml version="1.0" encoding="UTF-8"?>
<svg width="555px" height="177px" viewBox="0 0 555 177" version="1.1" xmlns="http://www.w3.org/2000/svg" xmlns:xlink="http://www.w3.org/1999/xlink">
  <g transform="translate(-107.000000, -424.000000)" fill="#000000">
      <path d="M660.38,594.51 C655,594.04 645.981,588.51 637.1,577.281 L601.191,531 L624.57,510.24 C632.57,502.901 647.51,498.52 647.51,498.52 L647.61,494.031 L604,494.031 L604,499.91 C609,501.06 611,502.18 611.231,505 C611.46,507.821 609.04,510.29 602.17,516.75 C602.17,516.75 578.62,535.84 577.68,536.67 C576.74,537.5 573.99,537 573.99,534.97 C573.99,533.16 574.14,424.031 574.14,424.031 L571.3,424.031 C571.3,424.031 560,433 533,439.42 L533,444 L539.88,444 C546.53,444 546,453.93 546,463.33 L546,580.62 C546,588.33 541.75,591.861 534,591.861 L534,599 L586,599 L586,591.861 C579.5,591.861 574.08,589.96 574.08,580.861 C574.08,579.281 574,548.031 574,547.08 C574,546.13 576.78,545.39 577.66,546.62 C578.79,548.2 608.09,582.62 608.941,583.62 C614.941,590.49 620.05,598.96 624.87,598.96 L662,598.96 L662,594.71 L660.38,594.51 Z M353.21,573.06 C347.63,580.79 338.72,584.6 332.53,584.6 C324.74,584.6 320.22,578.74 320.22,571.6 C320.22,558.531 332.89,552.46 344.38,548.51 C348.99,546.93 353.21,545.51 353.21,545.51 L353.21,573.06 Z M383.87,588.06 C380.03,588.06 379,584.191 379,578.12 L379,529.47 C380.25,501.47 370.21,491.531 347.46,491.66 L341.25,491.66 C332.87,491.66 309.04,509.41 305,512.08 C302.54,513.91 300.44,515.25 300.12,517.25 C299.85,518.97 301.12,521.91 302.89,524.571 L307.25,531.571 L310.25,530.231 L310.48,530.151 C313.63,528.74 312.99,529.01 315.27,527.941 C316.032,527.644 316.694,527.137 317.18,526.481 C317.772,525.399 318.151,524.214 318.3,522.99 C318.8,519.99 319.43,510.85 328.9,508.361 C332.07,507.531 339.82,507.24 343.82,508.74 C352.18,511.88 352.98,520.97 352.98,524.41 L352.98,537.281 C352.98,537.281 345.84,539.95 339.4,542.33 C323.94,548 294,555.21 294,575.22 C294,592.41 305.93,600.38 319.45,600.651 C338.93,601.031 353,584.54 354,583.651 L354,587.441 C354,596.13 360.65,600.99 371,600.99 C386.16,600.99 396.06,590.071 396.06,590.071 L392.81,584.611 C392.81,584.611 388.12,588.06 383.87,588.06 L383.87,588.06 Z M270,580.79 L270,426 L267.26,426 C267.26,426 258,435 231,441.42 L231,446 L238.09,446 C244.36,446 244,452.441 244,461.13 L244,579.92 C244,590.25 238.13,591.92 232,591.92 L232,599 L282,599 L282,591.861 C277.5,591.861 270,590.75 270,580.79 L270,580.79 Z M159.18,587.91 C152.07,587.91 148,585.62 148,585.62 L148,511.12 C154,508.83 158.45,507.68 162.81,507.68 C181.81,507.68 189.54,527.39 189.54,546.68 C189.53,568.88 179.35,587.91 159.18,587.91 L159.18,587.91 Z M177.29,489.571 C163.08,489.571 154,496.37 148,504.63 L148,424 L145.3,424 C145.3,424 134,433 107,439.42 L107,444 L114.14,444 C120.79,444 120.19,449.8 120.19,459.2 L120.33,573 C120.33,587.901 116,594.76 116,594.76 L116,599 L161.48,599 C197.87,599 220,567.781 220,538.901 C220,514.14 205.72,489.571 177.29,489.571 L177.29,489.571 Z M511,580.781 L511,522.08 C511,499.84 500.64,491.13 484.83,491.13 C468.09,491.14 452,505 446,512.941 L446,491 L443.1,491 C443.1,491 432,500.14 405,506.55 L405,511 L411.93,511 C418.58,511 418,516.87 418,526.27 L418,580.75 C418,588.56 413.13,592 406,591.861 L406,599 L458,599 L458,591.861 C452.58,591.861 446,590.08 446,580.79 L446,519.79 C452.912,514.397 461.402,511.418 470.17,511.31 C479.11,511.31 483,515 483,531 L483,580.79 C483,589.41 477,592 471,592 L471,599 L523,599 L523,591.941 C516.81,591.91 511,589.41 511,580.781 L511,580.781 Z" id="Fill-1"></path>
  </g>
</svg>
