<?xml version="1.0" encoding="utf-8"?>
<!-- Generator: Adobe Illustrator 19.1.0, SVG Export Plug-In . SVG Version: 6.00 Build 0)  -->
<svg version="1.1" id="Layer_1" xmlns="http://www.w3.org/2000/svg" xmlns:xlink="http://www.w3.org/1999/xlink" x="0px" y="0px" height="43px" width="116px"
	 viewBox="0 0 43 116" style="enable-background:new 0 0 43 116;" xml:space="preserve">
<style type="text/css">
	.st0{fill:#EF4A5F;}
</style>
<polygon class="st0" points="43,88 0,88 0,100 21.5,116 43,100 "/>
<path class="st0" d="M26.4,24.6c-5.5,0-9.7,2.6-11.4,5.8C15,29.3,15,0,15,0h-0.8C14.2,0,10,2.8,0,5.3V7h1.9c2.6,0,2.3,2.3,2.3,5.9
	L4,56.7c0,5.7-2,8.4-2,8.4V67c5,0,13.3,0,18.5,0c14,0,22.5-12.2,22.5-23.3C42.9,34.2,37.3,24.6,26.4,24.6z M19.4,62.4
	c-2.7,0-4.4-0.9-4.4-0.9V32.9c1.7-0.9,4.2-1.3,5.8-1.3c7.3,0,10.3,7.6,10.3,15C31.1,55.1,27.2,62.4,19.4,62.4z"/>
</svg>
