<?xml version="1.0" encoding="utf-8"?>
<!-- Generator: Adobe Illustrator 19.1.0, SVG Export Plug-In . SVG Version: 6.00 Build 0)  -->
<svg version="1.1" id="Layer_1" xmlns="http://www.w3.org/2000/svg" xmlns:xlink="http://www.w3.org/1999/xlink" x="0px" y="0px"
	 viewBox="0 0 100 100" style="enable-background:new 0 0 100 100;" xml:space="preserve">
<style type="text/css">
	.st0{fill:#262626;}
</style>
<path class="st0" d="M0,0v100h100V0H0z M77.2,35.6c0,0.6,0,1.2,0,1.8c0,18.3-13.9,39.4-39.4,39.4c-7.8,0-15.1-2.3-21.2-6.2
	c1.1,0.1,2.2,0.2,3.3,0.2c6.5,0,12.5-2.2,17.2-5.9c-6.1-0.1-11.2-4.1-12.9-9.6c0.8,0.2,1.7,0.2,2.6,0.2c1.3,0,2.5-0.2,3.6-0.5
	c-6.3-1.3-11.1-6.9-11.1-13.6c0-0.1,0-0.1,0-0.2c1.9,1,4,1.7,6.3,1.7c-3.7-2.5-6.2-6.7-6.2-11.5c0-2.5,0.7-4.9,1.9-7
	c6.8,8.4,17,13.9,28.5,14.5c-0.2-1-0.4-2.1-0.4-3.2c0-7.6,6.2-13.8,13.9-13.8c4,0,7.6,1.7,10.1,4.4c3.2-0.6,6.1-1.8,8.8-3.4
	c-1,3.2-3.2,5.9-6.1,7.7c2.8-0.3,5.5-1.1,8-2.2C82.3,31.2,79.9,33.7,77.2,35.6z"/>
</svg>
